<?xml version="1.0" encoding="UTF-8" standalone="no"?>
<!DOCTYPE svg PUBLIC "-//W3C//DTD SVG 1.1//EN"
 "http://www.w3.org/Graphics/SVG/1.1/DTD/svg11.dtd">
<!-- Generated by graphviz version 2.40.1 (20161225.0304)
 -->
<!-- Title: %3 Pages: 1 -->
<svg width="334pt" height="462pt"
 viewBox="0.00 0.00 334.00 462.00" xmlns="http://www.w3.org/2000/svg" xmlns:xlink="http://www.w3.org/1999/xlink">
<g id="graph0" class="graph" transform="scale(1 1) rotate(0) translate(4 458)">
<title>%3</title>
<polygon fill="#ffffff" stroke="transparent" points="-4,4 -4,-458 330,-458 330,4 -4,4"/>
<g id="clust1" class="cluster">
<title>cluster_0</title>
<polygon fill="none" stroke="#0000ff" points="8,-296 8,-446 144,-446 144,-296 8,-296"/>
<text text-anchor="middle" x="76" y="-430.8" font-family="Times,serif" font-size="14.00" fill="#000000">Game rules</text>
</g>
<g id="clust2" class="cluster">
<title>cluster_1</title>
<polygon fill="none" stroke="#ff0000" points="152,-8 152,-371 318,-371 318,-8 152,-8"/>
<text text-anchor="middle" x="235" y="-355.8" font-family="Times,serif" font-size="14.00" fill="#000000">Gloss UI</text>
</g>
<!-- Game.Model -->
<g id="node1" class="node">
<title>Game.Model</title>
<ellipse fill="none" stroke="#000000" cx="77" cy="-397" rx="57.6901" ry="18"/>
<text text-anchor="middle" x="77" y="-393.3" font-family="Times,serif" font-size="14.00" fill="#000000">Game.Model</text>
</g>
<!-- Game.Update -->
<g id="node2" class="node">
<title>Game.Update</title>
<ellipse fill="none" stroke="#000000" cx="76" cy="-322" rx="59.5901" ry="18"/>
<text text-anchor="middle" x="76" y="-318.3" font-family="Times,serif" font-size="14.00" fill="#000000">Game.Update</text>
</g>
<!-- Game.Model&#45;&gt;Game.Update -->
<g id="edge1" class="edge">
<title>Game.Model&#45;&gt;Game.Update</title>
<path fill="none" stroke="#000000" d="M76.7579,-378.8446C76.6445,-370.3401 76.5068,-360.0076 76.38,-350.4964"/>
<polygon fill="#000000" stroke="#000000" points="79.8764,-350.2006 76.2433,-340.2482 72.877,-350.294 79.8764,-350.2006"/>
</g>
<!-- Model -->
<g id="node4" class="node">
<title>Model</title>
<ellipse fill="none" stroke="#000000" cx="195" cy="-322" rx="34.394" ry="18"/>
<text text-anchor="middle" x="195" y="-318.3" font-family="Times,serif" font-size="14.00" fill="#000000">Model</text>
</g>
<!-- Game.Model&#45;&gt;Model -->
<g id="edge2" class="edge">
<title>Game.Model&#45;&gt;Model</title>
<path fill="none" stroke="#000000" d="M119.8099,-384.8916C129.488,-381.2004 139.4278,-376.5995 148,-371 158.1248,-364.3864 167.6829,-355.204 175.5024,-346.5739"/>
<polygon fill="#000000" stroke="#000000" points="178.2552,-348.7417 182.1612,-338.8931 172.9661,-344.1563 178.2552,-348.7417"/>
</g>
<!-- Layout -->
<g id="node5" class="node">
<title>Layout</title>
<ellipse fill="none" stroke="#000000" cx="196" cy="-250" rx="35.9954" ry="18"/>
<text text-anchor="middle" x="196" y="-246.3" font-family="Times,serif" font-size="14.00" fill="#000000">Layout</text>
</g>
<!-- Game.Update&#45;&gt;Layout -->
<g id="edge3" class="edge">
<title>Game.Update&#45;&gt;Layout</title>
<path fill="none" stroke="#000000" d="M102.9303,-305.8418C121.0652,-294.9609 145.0615,-280.5631 164.1458,-269.1125"/>
<polygon fill="#000000" stroke="#000000" points="166.0264,-272.0659 172.8006,-263.9197 162.4249,-266.0634 166.0264,-272.0659"/>
</g>
<!-- View -->
<g id="node3" class="node">
<title>View</title>
<ellipse fill="none" stroke="#000000" cx="190" cy="-178" rx="29.795" ry="18"/>
<text text-anchor="middle" x="190" y="-174.3" font-family="Times,serif" font-size="14.00" fill="#000000">View</text>
</g>
<!-- App -->
<g id="node7" class="node">
<title>App</title>
<ellipse fill="none" stroke="#000000" cx="232" cy="-106" rx="27" ry="18"/>
<text text-anchor="middle" x="232" y="-102.3" font-family="Times,serif" font-size="14.00" fill="#000000">App</text>
</g>
<!-- View&#45;&gt;App -->
<g id="edge8" class="edge">
<title>View&#45;&gt;App</title>
<path fill="none" stroke="#000000" d="M199.9534,-160.937C205.0271,-152.2393 211.3034,-141.4799 216.953,-131.7948"/>
<polygon fill="#000000" stroke="#000000" points="220.1025,-133.3419 222.118,-122.9405 214.056,-129.8148 220.1025,-133.3419"/>
</g>
<!-- Model&#45;&gt;Layout -->
<g id="edge4" class="edge">
<title>Model&#45;&gt;Layout</title>
<path fill="none" stroke="#000000" d="M195.2523,-303.8314C195.3593,-296.131 195.4865,-286.9743 195.6053,-278.4166"/>
<polygon fill="#000000" stroke="#000000" points="199.1049,-278.4609 195.7443,-268.4133 192.1056,-278.3637 199.1049,-278.4609"/>
</g>
<!-- Layout&#45;&gt;View -->
<g id="edge6" class="edge">
<title>Layout&#45;&gt;View</title>
<path fill="none" stroke="#000000" d="M194.4859,-231.8314C193.8442,-224.131 193.0812,-214.9743 192.3681,-206.4166"/>
<polygon fill="#000000" stroke="#000000" points="195.8529,-206.088 191.5344,-196.4133 188.8771,-206.6694 195.8529,-206.088"/>
</g>
<!-- Update -->
<g id="node6" class="node">
<title>Update</title>
<ellipse fill="none" stroke="#000000" cx="274" cy="-178" rx="36.2938" ry="18"/>
<text text-anchor="middle" x="274" y="-174.3" font-family="Times,serif" font-size="14.00" fill="#000000">Update</text>
</g>
<!-- Layout&#45;&gt;Update -->
<g id="edge5" class="edge">
<title>Layout&#45;&gt;Update</title>
<path fill="none" stroke="#000000" d="M213.3107,-234.0209C223.914,-224.2332 237.6536,-211.5505 249.3776,-200.7284"/>
<polygon fill="#000000" stroke="#000000" points="251.7636,-203.2891 256.7377,-193.9345 247.0156,-198.1455 251.7636,-203.2891"/>
</g>
<!-- Update&#45;&gt;App -->
<g id="edge7" class="edge">
<title>Update&#45;&gt;App</title>
<path fill="none" stroke="#000000" d="M263.833,-160.5708C258.8288,-151.9922 252.6945,-141.4762 247.151,-131.9732"/>
<polygon fill="#000000" stroke="#000000" points="250.1354,-130.1429 242.0734,-123.2687 244.0889,-133.6701 250.1354,-130.1429"/>
</g>
<!-- Main -->
<g id="node8" class="node">
<title>Main</title>
<ellipse fill="none" stroke="#000000" cx="232" cy="-34" rx="29.795" ry="18"/>
<text text-anchor="middle" x="232" y="-30.3" font-family="Times,serif" font-size="14.00" fill="#000000">Main</text>
</g>
<!-- App&#45;&gt;Main -->
<g id="edge9" class="edge">
<title>App&#45;&gt;Main</title>
<path fill="none" stroke="#000000" d="M232,-87.8314C232,-80.131 232,-70.9743 232,-62.4166"/>
<polygon fill="#000000" stroke="#000000" points="235.5001,-62.4132 232,-52.4133 228.5001,-62.4133 235.5001,-62.4132"/>
</g>
</g>
</svg>
