<?xml version="1.0" encoding="UTF-8" standalone="no"?>
<!DOCTYPE svg PUBLIC "-//W3C//DTD SVG 1.1//EN"
 "http://www.w3.org/Graphics/SVG/1.1/DTD/svg11.dtd">
<!-- Generated by graphviz version 2.40.1 (20161225.0304)
 -->
<!-- Title: %3 Pages: 1 -->
<svg width="500pt" height="465pt"
 viewBox="0.00 0.00 500.00 465.00" xmlns="http://www.w3.org/2000/svg" xmlns:xlink="http://www.w3.org/1999/xlink">
<g id="graph0" class="graph" transform="scale(1 1) rotate(0) translate(4 461)">
<title>%3</title>
<polygon fill="#ffffff" stroke="transparent" points="-4,4 -4,-461 496,-461 496,4 -4,4"/>
<g id="clust1" class="cluster">
<title>cluster_1</title>
<polygon fill="none" stroke="#ff0000" points="8,-299 8,-449 144,-449 144,-299 8,-299"/>
<text text-anchor="middle" x="76" y="-433.8" font-family="Times,serif" font-size="14.00" fill="#000000">Game rules</text>
</g>
<g id="clust2" class="cluster">
<title>cluster_2</title>
<polygon fill="none" stroke="#0000ff" points="152,-8 152,-374 318,-374 318,-8 152,-8"/>
<text text-anchor="middle" x="235" y="-358.8" font-family="Times,serif" font-size="14.00" fill="#000000">Gloss UI</text>
</g>
<g id="clust4" class="cluster">
<title>cluster_3</title>
<polygon fill="none" stroke="#00cd00" points="326,-152 326,-227 484,-227 484,-152 326,-152"/>
<text text-anchor="middle" x="405" y="-211.8" font-family="Times,serif" font-size="14.00" fill="#000000">Server</text>
</g>
<!-- Game.Model -->
<g id="node1" class="node">
<title>Game.Model</title>
<ellipse fill="none" stroke="#000000" cx="77" cy="-400" rx="57.6901" ry="18"/>
<text text-anchor="middle" x="77" y="-396.3" font-family="Times,serif" font-size="14.00" fill="#000000">Game.Model</text>
</g>
<!-- Game.Update -->
<g id="node2" class="node">
<title>Game.Update</title>
<ellipse fill="none" stroke="#000000" cx="76" cy="-325" rx="59.5901" ry="18"/>
<text text-anchor="middle" x="76" y="-321.3" font-family="Times,serif" font-size="14.00" fill="#000000">Game.Update</text>
</g>
<!-- Game.Model&#45;&gt;Game.Update -->
<g id="edge1" class="edge">
<title>Game.Model&#45;&gt;Game.Update</title>
<path fill="none" stroke="#000000" d="M76.7579,-381.8446C76.6445,-373.3401 76.5068,-363.0076 76.38,-353.4964"/>
<polygon fill="#000000" stroke="#000000" points="79.8764,-353.2006 76.2433,-343.2482 72.877,-353.294 79.8764,-353.2006"/>
</g>
<!-- Model -->
<g id="node4" class="node">
<title>Model</title>
<ellipse fill="none" stroke="#000000" cx="195" cy="-325" rx="34.394" ry="18"/>
<text text-anchor="middle" x="195" y="-321.3" font-family="Times,serif" font-size="14.00" fill="#000000">Model</text>
</g>
<!-- Game.Model&#45;&gt;Model -->
<g id="edge2" class="edge">
<title>Game.Model&#45;&gt;Model</title>
<path fill="none" stroke="#000000" d="M119.8099,-387.8916C129.488,-384.2004 139.4278,-379.5995 148,-374 158.1248,-367.3864 167.6829,-358.204 175.5024,-349.5739"/>
<polygon fill="#000000" stroke="#000000" points="178.2552,-351.7417 182.1612,-341.8931 172.9661,-347.1563 178.2552,-351.7417"/>
</g>
<!-- Layout -->
<g id="node5" class="node">
<title>Layout</title>
<ellipse fill="none" stroke="#000000" cx="196" cy="-253" rx="35.9954" ry="18"/>
<text text-anchor="middle" x="196" y="-249.3" font-family="Times,serif" font-size="14.00" fill="#000000">Layout</text>
</g>
<!-- Game.Update&#45;&gt;Layout -->
<g id="edge3" class="edge">
<title>Game.Update&#45;&gt;Layout</title>
<path fill="none" stroke="#000000" d="M102.9303,-308.8418C121.0652,-297.9609 145.0615,-283.5631 164.1458,-272.1125"/>
<polygon fill="#000000" stroke="#000000" points="166.0264,-275.0659 172.8006,-266.9197 162.4249,-269.0634 166.0264,-275.0659"/>
</g>
<!-- View -->
<g id="node3" class="node">
<title>View</title>
<ellipse fill="none" stroke="#000000" cx="190" cy="-178" rx="29.795" ry="18"/>
<text text-anchor="middle" x="190" y="-174.3" font-family="Times,serif" font-size="14.00" fill="#000000">View</text>
</g>
<!-- App -->
<g id="node7" class="node">
<title>App</title>
<ellipse fill="none" stroke="#000000" cx="274" cy="-106" rx="27" ry="18"/>
<text text-anchor="middle" x="274" y="-102.3" font-family="Times,serif" font-size="14.00" fill="#000000">App</text>
</g>
<!-- View&#45;&gt;App -->
<g id="edge8" class="edge">
<title>View&#45;&gt;App</title>
<path fill="none" stroke="#000000" d="M207.4049,-163.0816C219.5027,-152.712 235.8041,-138.7393 249.2504,-127.2139"/>
<polygon fill="#000000" stroke="#000000" points="251.8758,-129.5734 257.1906,-120.408 247.3203,-124.2586 251.8758,-129.5734"/>
</g>
<!-- Model&#45;&gt;Layout -->
<g id="edge4" class="edge">
<title>Model&#45;&gt;Layout</title>
<path fill="none" stroke="#000000" d="M195.2523,-306.8314C195.3593,-299.131 195.4865,-289.9743 195.6053,-281.4166"/>
<polygon fill="#000000" stroke="#000000" points="199.1049,-281.4609 195.7443,-271.4133 192.1056,-281.3637 199.1049,-281.4609"/>
</g>
<!-- Layout&#45;&gt;View -->
<g id="edge6" class="edge">
<title>Layout&#45;&gt;View</title>
<path fill="none" stroke="#000000" d="M194.5476,-234.8446C193.8548,-226.1849 193.0104,-215.6301 192.2381,-205.9768"/>
<polygon fill="#000000" stroke="#000000" points="195.7255,-205.6772 191.4391,-195.9882 188.7477,-206.2355 195.7255,-205.6772"/>
</g>
<!-- Update -->
<g id="node6" class="node">
<title>Update</title>
<ellipse fill="none" stroke="#000000" cx="274" cy="-178" rx="36.2938" ry="18"/>
<text text-anchor="middle" x="274" y="-174.3" font-family="Times,serif" font-size="14.00" fill="#000000">Update</text>
</g>
<!-- Layout&#45;&gt;Update -->
<g id="edge5" class="edge">
<title>Layout&#45;&gt;Update</title>
<path fill="none" stroke="#000000" d="M216.3205,-237.8257C220.6149,-234.3902 225.042,-230.6696 229,-227 237.131,-219.4613 245.4919,-210.686 252.7668,-202.6617"/>
<polygon fill="#000000" stroke="#000000" points="255.5895,-204.7551 259.631,-194.9613 250.3641,-200.0971 255.5895,-204.7551"/>
</g>
<!-- Update&#45;&gt;App -->
<g id="edge7" class="edge">
<title>Update&#45;&gt;App</title>
<path fill="none" stroke="#000000" d="M274,-159.8314C274,-152.131 274,-142.9743 274,-134.4166"/>
<polygon fill="#000000" stroke="#000000" points="277.5001,-134.4132 274,-124.4133 270.5001,-134.4133 277.5001,-134.4132"/>
</g>
<!-- Cli -->
<g id="node8" class="node">
<title>Cli</title>
<ellipse fill="none" stroke="#000000" cx="274" cy="-34" rx="27" ry="18"/>
<text text-anchor="middle" x="274" y="-30.3" font-family="Times,serif" font-size="14.00" fill="#000000">Cli</text>
</g>
<!-- App&#45;&gt;Cli -->
<g id="edge9" class="edge">
<title>App&#45;&gt;Cli</title>
<path fill="none" stroke="#000000" d="M274,-87.8314C274,-80.131 274,-70.9743 274,-62.4166"/>
<polygon fill="#000000" stroke="#000000" points="277.5001,-62.4132 274,-52.4133 270.5001,-62.4133 277.5001,-62.4132"/>
</g>
<!-- JsonRelay.Client -->
<g id="node9" class="node">
<title>JsonRelay.Client</title>
<ellipse fill="none" stroke="#000000" cx="405" cy="-178" rx="70.6878" ry="18"/>
<text text-anchor="middle" x="405" y="-174.3" font-family="Times,serif" font-size="14.00" fill="#000000">JsonRelay.Client</text>
</g>
<!-- JsonRelay.Client&#45;&gt;App -->
<g id="edge10" class="edge">
<title>JsonRelay.Client&#45;&gt;App</title>
<path fill="none" stroke="#000000" d="M374.946,-161.4817C353.6264,-149.7641 325.1373,-134.106 303.8612,-122.4123"/>
<polygon fill="#000000" stroke="#000000" points="305.3856,-119.2563 294.9362,-117.5069 302.0139,-125.3908 305.3856,-119.2563"/>
</g>
</g>
</svg>
